<svg width="179" height="65" viewBox="0 0 179 65" fill="none" xmlns="http://www.w3.org/2000/svg">
<path d="M71.232 43.448C69.6747 43.448 68.3307 43.2347 67.2 42.808C66.0693 42.36 65.1307 41.752 64.384 40.984C63.6587 40.1947 63.1147 39.2667 62.752 38.2C62.4107 37.112 62.24 35.9173 62.24 34.616V20.824H67.232V34.2C67.232 35.096 67.328 35.864 67.52 36.504C67.7333 37.1227 68.0107 37.6347 68.352 38.04C68.7147 38.424 69.1413 38.7013 69.632 38.872C70.144 39.0427 70.6987 39.128 71.296 39.128C72.512 39.128 73.4933 38.7547 74.24 38.008C75.008 37.2613 75.392 35.992 75.392 34.2V20.824H80.384V34.616C80.384 35.9173 80.2027 37.112 79.84 38.2C79.4773 39.288 78.9227 40.2267 78.176 41.016C77.4293 41.784 76.48 42.3813 75.328 42.808C74.176 43.2347 72.8107 43.448 71.232 43.448ZM94.909 30.392C94.4823 30.2853 93.981 30.1787 93.405 30.072C92.829 29.944 92.2103 29.88 91.549 29.88C91.2503 29.88 90.8877 29.912 90.461 29.976C90.0557 30.0187 89.7463 30.072 89.533 30.136V43H84.765V27.064C85.6183 26.7653 86.621 26.488 87.773 26.232C88.9463 25.9547 90.2477 25.816 91.677 25.816C91.933 25.816 92.2423 25.8373 92.605 25.88C92.9677 25.9013 93.3303 25.944 93.693 26.008C94.0557 26.0507 94.4183 26.1147 94.781 26.2C95.1437 26.264 95.453 26.3493 95.709 26.456L94.909 30.392ZM108.949 34.456C108.949 31.384 107.818 29.848 105.557 29.848C105.066 29.848 104.576 29.912 104.085 30.04C103.616 30.168 103.232 30.328 102.933 30.52V39.192C103.168 39.2347 103.466 39.2773 103.829 39.32C104.192 39.3413 104.586 39.352 105.013 39.352C106.314 39.352 107.296 38.904 107.957 38.008C108.618 37.112 108.949 35.928 108.949 34.456ZM113.813 34.584C113.813 35.928 113.61 37.144 113.205 38.232C112.821 39.32 112.256 40.248 111.509 41.016C110.762 41.784 109.845 42.3813 108.757 42.808C107.669 43.2133 106.432 43.416 105.045 43.416C104.469 43.416 103.861 43.384 103.221 43.32C102.602 43.2773 101.984 43.2133 101.365 43.128C100.768 43.0427 100.192 42.9467 99.637 42.84C99.0823 42.712 98.5917 42.584 98.165 42.456V18.936L102.933 18.168V26.552C103.466 26.3173 104.021 26.136 104.597 26.008C105.173 25.88 105.792 25.816 106.453 25.816C107.648 25.816 108.704 26.0293 109.621 26.456C110.538 26.8613 111.306 27.448 111.925 28.216C112.544 28.984 113.013 29.912 113.333 31C113.653 32.0667 113.813 33.2613 113.813 34.584ZM116.578 34.712C116.578 33.2187 116.802 31.9173 117.25 30.808C117.719 29.6773 118.327 28.7387 119.074 27.992C119.82 27.2453 120.674 26.68 121.634 26.296C122.615 25.912 123.618 25.72 124.642 25.72C127.031 25.72 128.919 26.456 130.306 27.928C131.692 29.3787 132.386 31.5227 132.386 34.36C132.386 34.6373 132.375 34.9467 132.354 35.288C132.332 35.608 132.311 35.896 132.29 36.152H121.474C121.58 37.1333 122.039 37.912 122.85 38.488C123.66 39.064 124.748 39.352 126.114 39.352C126.988 39.352 127.842 39.2773 128.674 39.128C129.527 38.9573 130.22 38.7547 130.754 38.52L131.394 42.392C131.138 42.52 130.796 42.648 130.37 42.776C129.943 42.904 129.463 43.0107 128.93 43.096C128.418 43.2027 127.863 43.288 127.266 43.352C126.668 43.416 126.071 43.448 125.474 43.448C123.959 43.448 122.636 43.224 121.506 42.776C120.396 42.328 119.468 41.72 118.722 40.952C117.996 40.1627 117.452 39.2347 117.09 38.168C116.748 37.1013 116.578 35.9493 116.578 34.712ZM127.778 32.888C127.756 32.4827 127.682 32.088 127.554 31.704C127.447 31.32 127.266 30.9787 127.01 30.68C126.775 30.3813 126.466 30.136 126.082 29.944C125.719 29.752 125.26 29.656 124.706 29.656C124.172 29.656 123.714 29.752 123.33 29.944C122.946 30.1147 122.626 30.3493 122.37 30.648C122.114 30.9467 121.911 31.2987 121.762 31.704C121.634 32.088 121.538 32.4827 121.474 32.888H127.778ZM140.541 43C139.453 40.8667 138.344 38.3707 137.213 35.512C136.104 32.6533 135.048 29.5387 134.045 26.168H139.101C139.314 27 139.56 27.9067 139.837 28.888C140.136 29.848 140.434 30.8293 140.733 31.832C141.053 32.8133 141.362 33.7733 141.661 34.712C141.981 35.6507 142.29 36.504 142.589 37.272C142.866 36.504 143.165 35.6507 143.485 34.712C143.805 33.7733 144.114 32.8133 144.413 31.832C144.733 30.8293 145.032 29.848 145.309 28.888C145.608 27.9067 145.864 27 146.077 26.168H151.005C150.002 29.5387 148.936 32.6533 147.805 35.512C146.696 38.3707 145.597 40.8667 144.509 43H140.541ZM168.765 34.552C168.765 35.8747 168.573 37.0907 168.189 38.2C167.805 39.288 167.251 40.2267 166.525 41.016C165.8 41.784 164.925 42.3813 163.901 42.808C162.899 43.2347 161.768 43.448 160.509 43.448C159.272 43.448 158.141 43.2347 157.117 42.808C156.115 42.3813 155.251 41.784 154.525 41.016C153.8 40.2267 153.235 39.288 152.829 38.2C152.424 37.0907 152.221 35.8747 152.221 34.552C152.221 33.2293 152.424 32.024 152.829 30.936C153.256 29.848 153.832 28.92 154.557 28.152C155.304 27.384 156.179 26.7867 157.181 26.36C158.205 25.9333 159.315 25.72 160.509 25.72C161.725 25.72 162.835 25.9333 163.837 26.36C164.861 26.7867 165.736 27.384 166.461 28.152C167.187 28.92 167.752 29.848 168.157 30.936C168.563 32.024 168.765 33.2293 168.765 34.552ZM163.901 34.552C163.901 33.08 163.603 31.928 163.005 31.096C162.429 30.2427 161.597 29.816 160.509 29.816C159.421 29.816 158.579 30.2427 157.981 31.096C157.384 31.928 157.085 33.08 157.085 34.552C157.085 36.024 157.384 37.1973 157.981 38.072C158.579 38.9253 159.421 39.352 160.509 39.352C161.597 39.352 162.429 38.9253 163.005 38.072C163.603 37.1973 163.901 36.024 163.901 34.552Z" fill="#374151"/>
<g clip-path="url(#clip0_301_474)">
<path d="M17.5 56.875L27.5 24.375M32.5 24.375L36.2 36.3973M38.5725 44.1079L42.5 56.875" stroke="#FF7D54" stroke-width="2" stroke-linecap="round" stroke-linejoin="round"/>
<path d="M25 18.9583C25 20.3949 25.5268 21.7727 26.4645 22.7885C27.4021 23.8043 28.6739 24.375 30 24.375C31.3261 24.375 32.5979 23.8043 33.5355 22.7885C34.4732 21.7727 35 20.3949 35 18.9583C35 17.5217 34.4732 16.144 33.5355 15.1282C32.5979 14.1123 31.3261 13.5417 30 13.5417C28.6739 13.5417 27.4021 14.1123 26.4645 15.1282C25.5268 16.144 25 17.5217 25 18.9583Z" stroke="#FF7D54" stroke-width="2" stroke-linecap="round" stroke-linejoin="round"/>
<path d="M10 32.5C13.815 40.5031 21.47 46.0417 30 46.0417C38.525 46.0417 46.1825 40.495 50 32.5" stroke="#FF7D54" stroke-width="2" stroke-linecap="round" stroke-linejoin="round"/>
<path d="M30 13.5417V8.125" stroke="#FF7D54" stroke-width="2" stroke-linecap="round" stroke-linejoin="round"/>
</g>
<defs>
<clipPath id="clip0_301_474">
<rect width="60" height="65" fill="white"/>
</clipPath>
</defs>
</svg>
