<svg width="273" height="65" viewBox="0 0 273 65" fill="none" xmlns="http://www.w3.org/2000/svg">
<path d="M79.008 22.824V27.08H72.32V45H67.328V27.08H60.64V22.824H79.008ZM93.9455 44.424C93.1348 44.6587 92.0895 44.872 90.8095 45.064C89.5295 45.2773 88.1855 45.384 86.7775 45.384C85.3482 45.384 84.1535 45.192 83.1935 44.808C82.2548 44.424 81.5082 43.8907 80.9535 43.208C80.3988 42.504 80.0042 41.672 79.7695 40.712C79.5348 39.752 79.4175 38.696 79.4175 37.544V28.168H84.1855V36.968C84.1855 38.504 84.3882 39.6133 84.7935 40.296C85.1988 40.9787 85.9562 41.32 87.0655 41.32C87.4068 41.32 87.7695 41.3093 88.1535 41.288C88.5375 41.2453 88.8788 41.2027 89.1775 41.16V28.168H93.9455V44.424ZM105.233 45C104.359 43.144 103.495 41.2133 102.641 39.208C101.788 37.2027 100.977 35.2187 100.209 33.256C99.4412 31.2933 98.7266 29.416 98.0652 27.624C97.4252 25.832 96.8706 24.232 96.4012 22.824H101.905C102.332 24.104 102.791 25.4907 103.281 26.984C103.793 28.456 104.305 29.928 104.817 31.4C105.351 32.872 105.863 34.28 106.353 35.624C106.844 36.968 107.303 38.1307 107.729 39.112C108.135 38.1307 108.583 36.968 109.073 35.624C109.585 34.28 110.097 32.872 110.609 31.4C111.143 29.928 111.655 28.456 112.145 26.984C112.657 25.4907 113.127 24.104 113.553 22.824H118.865C118.375 24.232 117.809 25.832 117.169 27.624C116.529 29.416 115.825 31.2933 115.057 33.256C114.289 35.2187 113.479 37.2027 112.625 39.208C111.772 41.2133 110.908 43.144 110.033 45H105.233ZM135.309 36.552C135.309 37.8747 135.117 39.0907 134.733 40.2C134.349 41.288 133.794 42.2267 133.069 43.016C132.344 43.784 131.469 44.3813 130.445 44.808C129.442 45.2347 128.312 45.448 127.053 45.448C125.816 45.448 124.685 45.2347 123.661 44.808C122.658 44.3813 121.794 43.784 121.069 43.016C120.344 42.2267 119.778 41.288 119.373 40.2C118.968 39.0907 118.765 37.8747 118.765 36.552C118.765 35.2293 118.968 34.024 119.373 32.936C119.8 31.848 120.376 30.92 121.101 30.152C121.848 29.384 122.722 28.7867 123.725 28.36C124.749 27.9333 125.858 27.72 127.053 27.72C128.269 27.72 129.378 27.9333 130.381 28.36C131.405 28.7867 132.28 29.384 133.005 30.152C133.73 30.92 134.296 31.848 134.701 32.936C135.106 34.024 135.309 35.2293 135.309 36.552ZM130.445 36.552C130.445 35.08 130.146 33.928 129.549 33.096C128.973 32.2427 128.141 31.816 127.053 31.816C125.965 31.816 125.122 32.2427 124.525 33.096C123.928 33.928 123.629 35.08 123.629 36.552C123.629 38.024 123.928 39.1973 124.525 40.072C125.122 40.9253 125.965 41.352 127.053 41.352C128.141 41.352 128.973 40.9253 129.549 40.072C130.146 39.1973 130.445 38.024 130.445 36.552ZM151.23 31.368C150.846 31.7947 150.323 32.3707 149.662 33.096C149.022 33.8213 148.329 34.6213 147.582 35.496C146.835 36.3707 146.078 37.288 145.31 38.248C144.563 39.208 143.881 40.136 143.262 41.032H151.39V45H137.47V42.184C137.918 41.416 138.451 40.5947 139.07 39.72C139.71 38.824 140.371 37.928 141.054 37.032C141.758 36.136 142.451 35.272 143.134 34.44C143.817 33.5867 144.446 32.8187 145.022 32.136H137.854V28.168H151.23V31.368ZM154.81 22.824H159.802V45H154.81V22.824ZM173.763 36.072C173.763 34.536 173.56 33.448 173.155 32.808C172.771 32.168 172.099 31.848 171.139 31.848C170.84 31.848 170.531 31.8693 170.211 31.912C169.891 31.9333 169.582 31.9653 169.283 32.008V45H164.515V28.744C164.92 28.6373 165.39 28.5307 165.923 28.424C166.478 28.296 167.054 28.1893 167.651 28.104C168.27 27.9973 168.899 27.9227 169.539 27.88C170.179 27.816 170.808 27.784 171.427 27.784C172.643 27.784 173.624 27.944 174.371 28.264C175.139 28.5627 175.768 28.9253 176.259 29.352C176.942 28.8613 177.72 28.4773 178.595 28.2C179.491 27.9227 180.312 27.784 181.059 27.784C182.403 27.784 183.502 27.976 184.355 28.36C185.23 28.7227 185.923 29.2453 186.435 29.928C186.947 30.6107 187.299 31.4213 187.491 32.36C187.683 33.2987 187.779 34.344 187.779 35.496V45H183.011V36.072C183.011 34.536 182.808 33.448 182.403 32.808C182.019 32.168 181.347 31.848 180.387 31.848C180.131 31.848 179.768 31.912 179.299 32.04C178.851 32.168 178.478 32.328 178.179 32.52C178.328 33.0107 178.424 33.5333 178.467 34.088C178.51 34.6213 178.531 35.1973 178.531 35.816V45H173.763V36.072ZM202.793 36.712C202.793 35.24 202.462 34.0667 201.801 33.192C201.139 32.296 200.158 31.848 198.857 31.848C198.43 31.848 198.035 31.8693 197.673 31.912C197.31 31.9333 197.011 31.9653 196.777 32.008V40.616C197.075 40.808 197.459 40.968 197.929 41.096C198.419 41.224 198.91 41.288 199.401 41.288C201.662 41.288 202.793 39.7627 202.793 36.712ZM207.657 36.584C207.657 37.8853 207.497 39.0693 207.177 40.136C206.857 41.2027 206.387 42.12 205.769 42.888C205.15 43.656 204.382 44.2533 203.465 44.68C202.547 45.1067 201.491 45.32 200.297 45.32C199.635 45.32 199.017 45.256 198.441 45.128C197.865 45 197.31 44.8187 196.777 44.584V50.92H192.009V28.744C192.435 28.616 192.926 28.4987 193.481 28.392C194.035 28.264 194.611 28.1573 195.209 28.072C195.827 27.9867 196.446 27.9227 197.065 27.88C197.705 27.816 198.313 27.784 198.889 27.784C200.275 27.784 201.513 27.9973 202.601 28.424C203.689 28.8293 204.606 29.416 205.353 30.184C206.099 30.9307 206.665 31.848 207.049 32.936C207.454 34.024 207.657 35.24 207.657 36.584ZM226.965 36.552C226.965 37.8747 226.773 39.0907 226.389 40.2C226.005 41.288 225.451 42.2267 224.725 43.016C224 43.784 223.125 44.3813 222.101 44.808C221.099 45.2347 219.968 45.448 218.709 45.448C217.472 45.448 216.341 45.2347 215.317 44.808C214.315 44.3813 213.451 43.784 212.725 43.016C212 42.2267 211.435 41.288 211.029 40.2C210.624 39.0907 210.421 37.8747 210.421 36.552C210.421 35.2293 210.624 34.024 211.029 32.936C211.456 31.848 212.032 30.92 212.757 30.152C213.504 29.384 214.379 28.7867 215.381 28.36C216.405 27.9333 217.515 27.72 218.709 27.72C219.925 27.72 221.035 27.9333 222.037 28.36C223.061 28.7867 223.936 29.384 224.661 30.152C225.387 30.92 225.952 31.848 226.357 32.936C226.763 34.024 226.965 35.2293 226.965 36.552ZM222.101 36.552C222.101 35.08 221.803 33.928 221.205 33.096C220.629 32.2427 219.797 31.816 218.709 31.816C217.621 31.816 216.779 32.2427 216.181 33.096C215.584 33.928 215.285 35.08 215.285 36.552C215.285 38.024 215.584 39.1973 216.181 40.072C216.779 40.9253 217.621 41.352 218.709 41.352C219.797 41.352 220.629 40.9253 221.205 40.072C221.803 39.1973 222.101 38.024 222.101 36.552ZM240.703 32.392C240.276 32.2853 239.775 32.1787 239.199 32.072C238.623 31.944 238.004 31.88 237.343 31.88C237.044 31.88 236.681 31.912 236.255 31.976C235.849 32.0187 235.54 32.072 235.327 32.136V45H230.559V29.064C231.412 28.7653 232.415 28.488 233.567 28.232C234.74 27.9547 236.041 27.816 237.471 27.816C237.727 27.816 238.036 27.8373 238.399 27.88C238.761 27.9013 239.124 27.944 239.487 28.008C239.849 28.0507 240.212 28.1147 240.575 28.2C240.937 28.264 241.247 28.3493 241.503 28.456L240.703 32.392ZM243.799 23.976L248.567 23.208V28.168H254.295V32.136H248.567V38.056C248.567 39.0587 248.737 39.8587 249.079 40.456C249.441 41.0533 250.156 41.352 251.223 41.352C251.735 41.352 252.257 41.3093 252.791 41.224C253.345 41.1173 253.847 40.9787 254.295 40.808L254.967 44.52C254.391 44.7547 253.751 44.9573 253.047 45.128C252.343 45.2987 251.479 45.384 250.455 45.384C249.153 45.384 248.076 45.2133 247.223 44.872C246.369 44.5093 245.687 44.0187 245.175 43.4C244.663 42.76 244.3 41.992 244.087 41.096C243.895 40.2 243.799 39.208 243.799 38.12V23.976ZM263.884 41.672C264.354 41.672 264.802 41.6613 265.228 41.64C265.655 41.6187 265.996 41.5867 266.252 41.544V37.928C266.06 37.8853 265.772 37.8427 265.388 37.8C265.004 37.7573 264.652 37.736 264.332 37.736C263.884 37.736 263.458 37.768 263.052 37.832C262.668 37.8747 262.327 37.9707 262.028 38.12C261.73 38.2693 261.495 38.472 261.324 38.728C261.154 38.984 261.068 39.304 261.068 39.688C261.068 40.4347 261.314 40.9573 261.804 41.256C262.316 41.5333 263.01 41.672 263.884 41.672ZM263.5 27.72C264.908 27.72 266.082 27.88 267.02 28.2C267.959 28.52 268.706 28.9787 269.26 29.576C269.836 30.1733 270.242 30.8987 270.476 31.752C270.711 32.6053 270.828 33.5547 270.828 34.6V44.52C270.146 44.6693 269.196 44.84 267.98 45.032C266.764 45.2453 265.292 45.352 263.564 45.352C262.476 45.352 261.484 45.256 260.588 45.064C259.714 44.872 258.956 44.5627 258.316 44.136C257.676 43.688 257.186 43.112 256.844 42.408C256.503 41.704 256.332 40.84 256.332 39.816C256.332 38.8347 256.524 38.0027 256.908 37.32C257.314 36.6373 257.847 36.0933 258.508 35.688C259.17 35.2827 259.927 34.9947 260.78 34.824C261.634 34.632 262.519 34.536 263.436 34.536C264.055 34.536 264.599 34.568 265.068 34.632C265.559 34.6747 265.954 34.7387 266.252 34.824V34.376C266.252 33.5653 266.007 32.9147 265.516 32.424C265.026 31.9333 264.172 31.688 262.956 31.688C262.146 31.688 261.346 31.752 260.556 31.88C259.767 31.9867 259.084 32.1467 258.508 32.36L257.9 28.52C258.178 28.4347 258.519 28.3493 258.924 28.264C259.351 28.1573 259.81 28.072 260.3 28.008C260.791 27.9227 261.303 27.8587 261.836 27.816C262.391 27.752 262.946 27.72 263.5 27.72Z" fill="#374151"/>
<g clip-path="url(#clip0_301_474)">
<path d="M17.5 56.875L27.5 24.375M32.5 24.375L36.2 36.3973M38.5725 44.1079L42.5 56.875" stroke="#FF7D54" stroke-width="2" stroke-linecap="round" stroke-linejoin="round"/>
<path d="M25 18.9583C25 20.3949 25.5268 21.7727 26.4645 22.7885C27.4021 23.8043 28.6739 24.375 30 24.375C31.3261 24.375 32.5979 23.8043 33.5355 22.7885C34.4732 21.7727 35 20.3949 35 18.9583C35 17.5217 34.4732 16.144 33.5355 15.1282C32.5979 14.1123 31.3261 13.5417 30 13.5417C28.6739 13.5417 27.4021 14.1123 26.4645 15.1282C25.5268 16.144 25 17.5217 25 18.9583Z" stroke="#FF7D54" stroke-width="2" stroke-linecap="round" stroke-linejoin="round"/>
<path d="M10 32.5C13.815 40.5031 21.47 46.0417 30 46.0417C38.525 46.0417 46.1825 40.495 50 32.5" stroke="#FF7D54" stroke-width="2" stroke-linecap="round" stroke-linejoin="round"/>
<path d="M30 13.5417V8.125" stroke="#FF7D54" stroke-width="2" stroke-linecap="round" stroke-linejoin="round"/>
</g>
<defs>
<clipPath id="clip0_301_474">
<rect width="60" height="65" fill="white"/>
</clipPath>
</defs>
</svg>
